<svg width="57" height="58" viewBox="0 0 57 58" fill="none" xmlns="http://www.w3.org/2000/svg">
<path d="M21.997 0.000295747C20.8985 0.00798515 19.814 0.16475 18.7614 0.480635C17.717 0.794413 16.7549 1.2492 15.8818 1.82839C16.8357 4.26196 19.2709 7.35112 22.0918 9.98821C25.037 12.7418 28.4142 15.0812 30.5951 16.1363L30.6207 16.1487L30.6458 16.1614C32.65 17.1952 34.0689 18.8221 34.8879 20.6168C35.4154 21.7725 35.7226 22.9829 35.9017 24.2135C37.5076 22.9559 39.2005 21.9488 40.9216 21.218C40.7906 18.9471 40.293 16.5659 39.3868 14.1815C37.4861 9.18095 34.1663 5.15517 30.4066 2.70002C27.7044 0.935427 24.8046 -0.0192998 21.997 0.000295747ZM12.5582 5.24708C11.9266 6.23107 11.4086 7.32818 11.015 8.51966C9.70062 12.4976 9.80723 17.4875 11.708 22.4883C12.8584 25.5149 14.5291 28.1835 16.5023 30.3638C18.4462 30.9477 20.3689 31.8498 22.1749 33.0739C23.5703 34.0198 24.8138 35.1026 25.8914 36.2802C26.2431 36.366 26.5949 36.4392 26.9464 36.4967C27.6159 34.7433 28.485 32.9988 29.5559 31.3063C30.2039 30.2815 30.9139 29.2975 31.6818 28.3599C31.6907 27.716 31.6856 27.0921 31.655 26.4964C31.5723 24.8853 31.3153 23.5074 30.8447 22.4763C30.3743 21.4452 29.7613 20.7249 28.6137 20.133L28.6643 20.1581C25.8382 18.7907 22.309 16.292 19.0609 13.2556C16.4791 10.8421 14.084 8.13879 12.5582 5.24708ZM47.1166 22.0801C45.448 22.0937 43.6829 22.4828 41.8971 23.227C38.0874 24.8148 34.2621 28.0329 31.4327 32.5035C29.9853 34.7908 28.9451 37.1755 28.2984 39.5137C30.837 43.7897 31.4605 48.7015 29.6317 52.8265C29.9273 53.2505 30.2573 53.6493 30.6182 54.0187C33.292 51.7027 36.3734 49.7842 38.5633 47.8141C39.7604 46.7376 40.6667 45.6716 41.1704 44.6565C41.674 43.6411 41.8473 42.7097 41.5854 41.4415L41.5701 41.3677L41.56 41.2933C40.5652 34.0635 42.3105 29.8147 44.8539 27.2155C46.8991 25.1257 48.9349 24.025 50.3393 22.5718C49.3246 22.2332 48.2427 22.0708 47.1166 22.0801ZM54.1266 25.0508C52.0722 27.6143 49.5394 28.7984 48.0262 30.3448C46.2873 32.1218 45.087 34.2608 45.9613 40.6516C46.3823 42.8245 46.0123 44.9113 45.1512 46.6471C44.2745 48.414 42.9634 49.8508 41.5311 51.1394C39.3553 53.0968 36.8455 54.7728 34.7459 56.4079C37.127 57.0289 39.8379 56.7284 42.5983 55.5778C46.408 53.9903 50.2336 50.772 53.0627 46.3013C55.8922 41.8305 57.1689 36.9863 56.9821 32.8494C56.8393 29.6856 55.866 26.9747 54.1267 25.0509L54.1266 25.0508ZM45.9613 40.6516C45.9539 40.6125 45.948 40.5737 45.9398 40.5346L45.9655 40.6826C45.9643 40.6722 45.963 40.6619 45.9614 40.6516H45.9613ZM11.3447 31.7934C9.07382 31.7728 6.93461 32.2727 5.13413 33.2577C5.14648 33.2581 5.15723 33.259 5.16958 33.2593C6.23566 33.2972 7.57401 33.1709 9.11495 33.3821C10.6558 33.5934 12.4608 34.2959 13.8282 35.8493C15.1957 37.4026 16.1333 39.6047 16.7864 42.7673L16.8019 42.841L16.812 42.9156C17.115 45.1222 18.515 46.3988 20.9422 47.594C23.0131 48.6138 25.6719 49.3421 28.1956 50.0835C29.326 44.9986 26.6441 38.7967 20.9307 34.9242C17.8501 32.8362 14.4732 31.8218 11.345 31.7934H11.3447ZM1.32896 36.9338C-1.79271 42.3325 0.710801 50.2544 7.51867 54.8689C14.2172 59.4094 22.3161 58.8719 26.2141 54.162C23.9366 53.5104 21.3548 52.7705 18.9837 51.6029C15.9263 50.0973 13.0122 47.5672 12.4241 43.6379C11.8642 40.9466 11.1159 39.5104 10.4958 38.806C9.8732 38.0982 9.38771 37.9261 8.51311 37.8064C7.6385 37.6863 6.43653 37.772 5.01306 37.7217C3.90374 37.6825 2.60221 37.5226 1.32896 36.9339V36.9338ZM12.4243 43.6378C12.427 43.6502 12.4297 43.6616 12.4323 43.6741L12.4067 43.5258C12.4119 43.5635 12.4187 43.6002 12.4244 43.6379L12.4243 43.6378Z" fill="#F2E8DF"/>
</svg>
